<?xml version="1.0" encoding="utf-8"?>
<!-- Generator: Adobe Illustrator 17.0.2, SVG Export Plug-In . SVG Version: 6.00 Build 0)  -->
<!DOCTYPE svg PUBLIC "-//W3C//DTD SVG 1.1//EN" "http://www.w3.org/Graphics/SVG/1.1/DTD/svg11.dtd">
<svg version="1.1" xmlns="http://www.w3.org/2000/svg" xmlns:xlink="http://www.w3.org/1999/xlink" x="0px" y="0px" width="15px"
	 height="19px" viewBox="0 0 15 19" enable-background="new 0 0 15 19" xml:space="preserve">
<g id="Guides">
</g>
<g id="Artwork">
	<g id="Small_Doc_icon">
	</g>
	<g id="Thin_arrow">
	</g>
	<g id="Small_Doc_icon_1_">
	</g>
	<g>
		<path fill="#2D2D2D" d="M14.037,2.962C13.417,2.342,12.592,2,11.715,2c-0.877,0-1.702,0.342-2.323,0.962L6.363,5.991
			c-0.321,0.321-0.321,0.841,0,1.162c0.321,0.321,0.841,0.321,1.161,0l3.029-3.029c0.31-0.31,0.722-0.481,1.161-0.481
			s0.851,0.171,1.161,0.481c0.31,0.31,0.481,0.722,0.481,1.161c0,0.439-0.171,0.851-0.481,1.161L9.847,9.474
			c-0.321,0.321-0.321,0.841,0,1.162c0.16,0.16,0.371,0.241,0.581,0.241c0.21,0,0.421-0.08,0.581-0.241l3.029-3.029
			c0.62-0.62,0.962-1.445,0.962-2.322C14.999,4.407,14.657,3.582,14.037,2.962z"/>
		<path fill="#2D2D2D" d="M7.473,11.847l-3.029,3.029c-0.31,0.31-0.722,0.481-1.161,0.481c-0.438,0-0.851-0.171-1.161-0.481
			c-0.64-0.64-0.64-1.682,0-2.322l3.029-3.029c0.321-0.321,0.321-0.841,0-1.162c-0.32-0.321-0.841-0.321-1.161,0l-3.029,3.029
			c-1.28,1.281-1.28,3.364,0,4.645C1.581,16.658,2.406,17,3.283,17c0.877,0,1.702-0.342,2.322-0.962l3.029-3.029
			c0.321-0.321,0.321-0.841,0-1.161C8.314,11.527,7.794,11.527,7.473,11.847z"/>
		<path fill="#2D2D2D" d="M4.621,12.378c0.16,0.16,0.371,0.241,0.581,0.241c0.21,0,0.421-0.08,0.581-0.241l4.594-4.594
			c0.321-0.321,0.321-0.841,0-1.162c-0.321-0.321-0.841-0.321-1.161,0l-4.594,4.594C4.301,11.537,4.301,12.057,4.621,12.378z"/>
	</g>
</g>
</svg>
