<?xml version="1.0" encoding="utf-8"?>
<!-- Generator: Adobe Illustrator 17.0.2, SVG Export Plug-In . SVG Version: 6.00 Build 0)  -->
<!DOCTYPE svg PUBLIC "-//W3C//DTD SVG 1.1//EN" "http://www.w3.org/Graphics/SVG/1.1/DTD/svg11.dtd">
<svg version="1.1" xmlns="http://www.w3.org/2000/svg" xmlns:xlink="http://www.w3.org/1999/xlink" x="0px" y="0px" width="15px"
	 height="19px" viewBox="0 0 15 19" enable-background="new 0 0 15 19" xml:space="preserve">
<g id="Guides">
</g>
<g id="Artwork">
	<g id="Small_Doc_icon">
	</g>
	<g id="Thin_arrow">
	</g>
	<g id="Small_Doc_icon_1_">
	</g>
	<g>
		<path fill="#2D2D2D" d="M12.73,4.27c-0.496-0.496-1.156-0.77-1.858-0.77c-0.702,0-1.362,0.273-1.858,0.77L6.591,6.693
			c-0.257,0.257-0.257,0.673,0,0.929c0.257,0.257,0.673,0.257,0.929,0l2.423-2.423c0.248-0.248,0.578-0.385,0.929-0.385
			c0.351,0,0.681,0.137,0.929,0.385c0.248,0.248,0.385,0.578,0.385,0.929c0,0.351-0.137,0.681-0.385,0.929L9.377,9.479
			c-0.257,0.257-0.257,0.673,0,0.929c0.128,0.128,0.296,0.193,0.465,0.193c0.168,0,0.336-0.064,0.465-0.193l2.423-2.423
			c0.496-0.496,0.77-1.156,0.77-1.858C13.499,5.426,13.226,4.766,12.73,4.27z"/>
		<path fill="#2D2D2D" d="M7.479,11.378l-2.423,2.423c-0.248,0.248-0.578,0.385-0.929,0.385c-0.351,0-0.681-0.137-0.929-0.385
			c-0.512-0.512-0.512-1.345,0-1.858L5.621,9.52c0.257-0.257,0.257-0.673,0-0.929c-0.256-0.257-0.673-0.257-0.929,0l-2.424,2.423
			c-1.024,1.025-1.024,2.691,0,3.716c0.496,0.496,1.156,0.77,1.858,0.77c0.702,0,1.362-0.273,1.858-0.77l2.423-2.423
			c0.257-0.257,0.257-0.673,0-0.929C8.152,11.121,7.735,11.121,7.479,11.378z"/>
		<path fill="#2D2D2D" d="M5.197,11.802c0.128,0.128,0.296,0.193,0.465,0.193s0.336-0.064,0.465-0.193l3.675-3.675
			c0.257-0.257,0.257-0.673,0-0.929c-0.256-0.257-0.673-0.257-0.929,0l-3.675,3.675C4.941,11.13,4.941,11.546,5.197,11.802z"/>
	</g>
</g>
</svg>
