<?xml version="1.0" encoding="utf-8"?>
<!-- Generator: Adobe Illustrator 17.0.2, SVG Export Plug-In . SVG Version: 6.00 Build 0)  -->
<!DOCTYPE svg PUBLIC "-//W3C//DTD SVG 1.1//EN" "http://www.w3.org/Graphics/SVG/1.1/DTD/svg11.dtd">
<svg version="1.1" xmlns="http://www.w3.org/2000/svg" xmlns:xlink="http://www.w3.org/1999/xlink" x="0px" y="0px" width="15px"
	 height="19px" viewBox="0 0 15 19" enable-background="new 0 0 15 19" xml:space="preserve">
<symbol  id="Small_Doc_icon_2_" viewBox="-7 -5 10 13">
	<polygon fill="#2D2D2D" points="3,-5 -6,-5 -6,8 -0.716,8 3,5.789 	"/>
	<polygon fill="#FFFFFF" stroke="#2D2D2D" stroke-miterlimit="10" points="1.5,-3.5 -6.5,-3.5 -6.5,7.5 0,7.5 1.5,6.112 	"/>
	<polygon fill="#2D2D2D" points="0,3 -5,3 -5,4 0,4 	"/>
	<polygon fill="#2D2D2D" points="0,1 -5,1 -5,2 0,2 	"/>
	<polygon fill="#2D2D2D" points="0,-1 -5,-1 -5,0 0,0 	"/>
	<polygon fill="#FFFFFF" points="3,8 0.192,8 3,5.222 	"/>
	<polygon display="none" fill="none" points="-7,8 3,8 3,-5 -7,-5 	"/>
</symbol>
<g id="Guides">
</g>
<g id="Artwork">
	<g id="Small_Doc_icon">
	</g>
	<g id="Thin_arrow">
	</g>
	<g id="Small_Doc_icon_1_">
	</g>
	
		<use xlink:href="#Small_Doc_icon_2_"  width="10" height="13" id="XMLID_19_" x="-7" y="-5" transform="matrix(1 0 0 -1 10 11)" overflow="visible"/>
</g>
</svg>
